<svg xmlns="http://www.w3.org/2000/svg" id="SvgjsSvg6671" width="4096" height="3489.2438097043614" version="1.1" xmlns:xlink="http://www.w3.org/1999/xlink" xmlns:svgjs="http://svgjs.com/svgjs"><defs id="SvgjsDefs6672"></defs><g id="SvgjsG6673" transform="translate(328, 328) scale(34.4)" opacity="1"><defs id="SvgjsDefs2471"></defs><g id="SvgjsG2472" transform="scale(0.8737856830124594)" opacity="1"><g id="SvgjsG2473" class="AZda206DP" transform="translate(-3.0133795530525336, -13.134718795845384) scale(1.2053518212210135)" light-content="false" non-strokable="false" fill="#2e80ec"><path d="M70.898 10.898h-57C7.601 10.898 2.5 16 2.5 22.3v32.898c0 6.3 5.102 11.398 11.398 11.398h28.199c5.5-5.2 15.898-13.199 28.301-13.199 4.2 0 8.3.898 11.898 2.398v-.601l.004-32.895c.098-6.301-5.102-11.402-11.402-11.402zM53.5 41.101L37.301 51.199c-1.8 1.102-4.2-.2-4.2-2.3V28.6c0-2.101 2.302-3.398 4.2-2.3L53.5 36.401c1.7 1.098 1.7 3.598 0 4.7z"></path><path d="M70.398 58c-11.301 0-21 7.8-25.699 12.398-1.8 1.7-1.8 4.602 0 6.3 4.7 4.602 14.5 12.399 25.699 12.399 11.301 0 21-7.801 25.699-12.398 1.8-1.7 1.8-4.602 0-6.301C91.397 65.8 81.699 58 70.398 58zm0 26.199c-5.898 0-10.602-4.8-10.602-10.602 0-5.898 4.8-10.602 10.602-10.602 5.898 0 10.602 4.8 10.602 10.602 0 5.8-4.7 10.602-10.602 10.602z"></path><path d="M70.398 67c-.7 0-1.3.102-1.898.3.398.5.699 1.102.699 1.802 0 1.8-1.399 3.199-3.2 3.199-.699 0-1.3-.301-1.8-.7a5.83 5.83 0 0 0-.301 1.899c0 3.602 2.898 6.602 6.602 6.602 3.601 0 6.601-2.899 6.601-6.602C77 69.898 74 67 70.398 67z"></path></g></g></g></svg>