<svg xmlns="http://www.w3.org/2000/svg" viewBox="0 0 441 305.86" ><path d="M378.96 258.96H71.79a12 12 0 0 1-12-12V63.98a12 12 0 0 1 12-12h307.17a12 12 0 0 1 12 12v182.98c0 6.62-5.37 12-12 12z" fill="none" stroke="#f268cb" stroke-width="4" stroke-miterlimit="10"/><linearGradient id="A" x1="201.75" x2="201.75" y1="39.475" y2="389.11" gradientUnits="userSpaceOnUse"><stop stop-color="#fff" offset="0"/><stop stop-color="#8d44f9" stop-opacity="0" offset=".913"/></linearGradient><path d="M351.4 221.86H52.11a12 12 0 0 1-12-12V31.79a12 12 0 0 1 12-12h299.3a12 12 0 0 1 12 12v178.06c-.01 6.63-5.38 12.01-12.01 12.01z" fill="url(#A)"/><path d="m201.75 101.86c-8.34 0-14.88 9.15-14.88 20.83s6.53 20.83 14.88 20.83c8.34 0 14.88-9.15 14.88-20.83s-6.53-20.83-14.88-20.83zm0 35.71c-4.84 0-8.93-6.81-8.93-14.88s4.09-14.88 8.93-14.88 8.93 6.81 8.93 14.88-4.09 14.88-8.93 14.88z" fill="#ddd"/><g fill="#fff"><path d="m201.75 93.69c-14.98 0-27.14 12.16-27.14 27.14s12.16 27.14 27.14 27.14 27.14-12.16 27.14-27.14-12.16-27.14-27.14-27.14zm-5.42 39.35v-24.42l16.28 12.21-16.28 12.21z"/><path d="M76.02 208.38H58.08c-2.49 0-4.5-2.01-4.5-4.5v-4.47c0-2.49 2.01-4.5 4.5-4.5h17.94c2.49 0 4.5 2.01 4.5 4.5v4.47a4.5 4.5 0 0 1-4.5 4.5zm32.27 0H90.35c-2.49 0-4.5-2.01-4.5-4.5v-4.47c0-2.49 2.01-4.5 4.5-4.5h17.94c2.49 0 4.5 2.01 4.5 4.5v4.47a4.5 4.5 0 0 1-4.5 4.5z" opacity=".5"/></g><path d="M342.03 44.49h-37.05c-2.49 0-4.5-2.01-4.5-4.5v-4.47c0-2.49 2.01-4.5 4.5-4.5h37.05c2.49 0 4.5 2.01 4.5 4.5v4.47a4.5 4.5 0 0 1-4.5 4.5z" opacity=".17"/><path d="M332.34 141.92h46.09V95.83c0-12.73-10.32-23.05-23.05-23.05h-23.05c-12.73 0-23.05 10.32-23.05 23.05v23.05c.01 12.72 10.33 23.04 23.06 23.04z" fill="#efefef"/><ellipse cx="231.32" cy="215.39" rx="26.37" ry="20.47" fill="#fff"/><linearGradient id="B" x1="176.54" x2="308.84" y1="272.46" y2="113.53" gradientUnits="userSpaceOnUse"><stop stop-color="#f2f2f2" offset="0"/><stop stop-color="#7028e4" offset=".571"/></linearGradient><path d="M170.53 301.65c-3.7.02-6.72-2.96-6.74-6.66-.01-1.8.7-3.53 1.98-4.8l9.45-9.45c2.81-2.41 7.04-2.08 9.45.73a6.7 6.7 0 0 1 0 8.72l-9.38 9.72c-1.3 1.18-3.01 1.81-4.76 1.74zm110.12-129.09v19.64c.06 19.57-7.71 38.34-21.58 52.15l-16.69 16.69-3.95 27.68c-.53 3.58-2.2 6.89-4.76 9.45l-4.76 4.76c-3.93 3.92-10.28 3.92-14.21 0l-40.22-40.22-14.28 14.14a6.71 6.71 0 0 1-9.48-.03 6.71 6.71 0 0 1 .03-9.48L164.96 253l-21.31-21.18c-3.92-3.93-3.92-10.28 0-14.21l4.76-4.83a16.82 16.82 0 0 1 9.45-4.69l27.68-3.95 16.69-16.69c13.87-13.94 32.75-21.71 52.41-21.58h19.64c3.57.16 6.38 3.11 6.37 6.69zm-35.12 28.42c-2.81-2.41-7.04-2.08-9.45.73a6.7 6.7 0 0 0 0 8.72 6.7 6.7 0 0 1 .04 9.48l-.04.04a6.7 6.7 0 1 1-9.49-9.48l.04-.04a6.71 6.71 0 0 0-.03-9.48 6.71 6.71 0 0 0-9.48.03c-7.86 7.85-7.87 20.58-.02 28.44s20.58 7.87 28.44.02 7.87-20.58.02-28.44c-.02-.01-.02-.02-.03-.02z" fill="url(#B)"/><path d="m329.67 118.19 10.02-10.04 6.68 6.68 14.2-15.97-2.35-2.35-11.84 13.31-6.68-6.68-12.53 12.54 2.5 2.51z" fill="#d871b5"/><path d="M112.01 71.2H64.55V23.73C64.55 10.63 75.17 0 88.28 0h23.73c13.11 0 23.73 10.63 23.73 23.73v23.73c.01 13.12-10.62 23.74-23.73 23.74z" fill="#f268cb"/><path d="M104.33 35.6c3.08 0 5.58-2.5 5.58-5.58s-2.5-5.58-5.58-5.58-5.58 2.5-5.58 5.58 2.5 5.58 5.58 5.58zm-12.55-2.79v-4.18H89v4.18h-4.18v2.79H89v4.18h2.79V35.6h4.18v-2.79h-4.19zm12.55 5.58c-3.72 0-11.15 1.87-11.15 5.58v2.79h22.3v-2.79c0-3.71-7.43-5.58-11.15-5.58z" fill="#fff"/><path d="M125.4 131.55H4.1a4.1 4.1 0 0 1-4.1-4.1v-27.27a4.1 4.1 0 0 1 4.1-4.1h121.3a4.1 4.1 0 0 1 4.1 4.1v27.27a4.1 4.1 0 0 1-4.1 4.1z" fill="#ededed"/><path d="M16.75 115.29v-.37h1.45v.17c0 .87.52 1.32 1.6 1.32 1 0 1.56-.39 1.56-1.26 0-.85-.5-1.25-1.65-1.25h-.87v-1.3h.86c.98 0 1.47-.36 1.47-1.17 0-.8-.49-1.21-1.4-1.21-.96 0-1.46.46-1.46 1.3v.14h-1.43v-.22c0-1.62 1.03-2.51 2.93-2.51 1.82 0 2.84.82 2.84 2.36 0 .9-.36 1.52-1.11 1.84v.03c.9.34 1.31 1.01 1.31 2.06 0 1.67-1.05 2.49-3.05 2.49s-3.05-.82-3.05-2.42zm7.47 0v-.37h1.45v.17c0 .87.52 1.32 1.6 1.32 1 0 1.56-.39 1.56-1.26 0-.85-.5-1.25-1.65-1.25h-.88v-1.3h.86c.98 0 1.47-.36 1.47-1.17 0-.8-.49-1.21-1.4-1.21-.96 0-1.46.46-1.46 1.3v.14h-1.43v-.22c0-1.62 1.03-2.51 2.93-2.51 1.82 0 2.84.82 2.84 2.36 0 .9-.36 1.52-1.11 1.84v.03c.9.34 1.31 1.01 1.31 2.06 0 1.67-1.05 2.49-3.05 2.49-1.99 0-3.04-.82-3.04-2.42zm7.73.65h1.62v1.62h-1.62v-1.62zm3.32-.66h1.45c.04.71.6 1.13 1.55 1.13 1.06 0 1.62-.54 1.62-1.58 0-1.03-.55-1.57-1.55-1.57a2.06 2.06 0 0 0-1.47.57h-1.35l.3-4.75H41v1.32h-3.9l-.12 2.13c.47-.39 1.05-.56 1.76-.56 1.71 0 2.66 1 2.66 2.82 0 1.96-1.07 2.92-3.1 2.92-1.95 0-3.01-.86-3.03-2.43zm7.64-6.82h1.5v5.46l2.52-2.83h1.79l-2.36 2.63 2.39 3.84H47l-1.71-2.75-.9.98v1.77h-1.5v-9.1zm8.91 5.86h-2.43v-1.22h2.43v-2.57h1.26v2.57h2.43v1.22h-2.43v2.57h-1.26v-2.57zm8.53-5.24h5.58v1.33h-4.06v2.19h3.44v1.33h-3.44v3.62h-1.52v-8.47zm6.38 5.81v-1.13c0-1.87.97-2.82 2.87-2.82 1.91 0 2.88.95 2.88 2.82v1.13c0 1.87-.97 2.82-2.88 2.82-1.9 0-2.87-.95-2.87-2.82zm4.25-.04v-1.06c0-1.11-.42-1.61-1.38-1.61-.95 0-1.37.5-1.37 1.61v1.06c0 1.11.42 1.61 1.37 1.61s1.38-.5 1.38-1.61zm3.02-6.39h1.5v9.1H74v-9.1zm3.32 0h1.5v9.1h-1.5v-9.1zm3.04 6.43v-1.13c0-1.87.97-2.82 2.87-2.82 1.91 0 2.88.95 2.88 2.82v1.13c0 1.87-.97 2.82-2.88 2.82-1.9 0-2.87-.95-2.87-2.82zm4.25-.04v-1.06c0-1.11-.42-1.61-1.38-1.61-.95 0-1.37.5-1.37 1.61v1.06c0 1.11.42 1.61 1.37 1.61.96 0 1.38-.5 1.38-1.61zm2.15-3.76h1.57l1.22 4.62 1.37-4.62h1.36l1.37 4.64 1.22-4.64h1.51l-1.93 6.47H92.9l-1.32-4.44-1.32 4.44H88.7l-1.94-6.47zm10.3 3.86v-1.27c0-1.78.98-2.74 2.81-2.74 1.84 0 2.82.97 2.82 2.76v1.07h-4.13v.2c0 1.05.42 1.53 1.38 1.53.79 0 1.22-.34 1.27-.9h1.43c-.07 1.38-1.03 2.11-2.71 2.11-1.87 0-2.87-.95-2.87-2.76zm4.2-1.29c0-1.05-.41-1.51-1.35-1.51-.95 0-1.36.46-1.36 1.51h2.71zm2.94-2.57h1.27l.06 1.18c.29-.9.83-1.31 1.75-1.31h.46v1.42h-.34c-1 0-1.51.42-1.71 1.46v3.71h-1.5v-6.46zm4.17 4.53h1.42c0 .64.41.95 1.28.95.8 0 1.18-.26 1.18-.76 0-.54-.39-.76-1.48-.9-1.65-.2-2.28-.72-2.28-1.92 0-1.33.92-2.04 2.58-2.04s2.52.7 2.52 2.03h-1.43c0-.6-.35-.88-1.1-.88-.71 0-1.1.27-1.1.74 0 .51.39.72 1.45.83 1.68.19 2.32.77 2.32 2.01 0 1.36-.88 2.04-2.66 2.04-1.82-.01-2.7-.71-2.7-2.1z" fill="#7028e4"/><path d="M95.97 79.56l-8.26 16.51h16.51z" fill="#ededed"/><path d="M436.89 202.35H319.34a4.1 4.1 0 0 1-4.1-4.1V172a4.1 4.1 0 0 1 4.1-4.1h117.55a4.1 4.1 0 0 1 4.1 4.1v26.24c.01 2.27-1.83 4.11-4.1 4.11z" fill="#f268cb"/><path d="M340.37 188.76c0-1.56.7-2.49 2.54-3.35 1.23-.58 1.65-.99 1.65-1.68 0-.59-.36-.98-1.15-.98-.81 0-1.21.4-1.21 1.25v.23h-1.69v-.39c0-1.71 1.03-2.6 2.92-2.6 1.91 0 2.92.91 2.92 2.48 0 1.37-.71 2.24-2.52 3.05-1.11.5-1.54.81-1.65 1.31h4.16v1.54h-5.96v-.86zm7.26-1.45h1.72c.04.59.48.93 1.23.93.87 0 1.29-.45 1.29-1.31s-.42-1.31-1.22-1.31a1.63 1.63 0 0 0-1.22.5h-1.56l.3-4.74h5.12v1.54h-3.63l-.11 1.72c.44-.34.97-.48 1.6-.48 1.63 0 2.52.96 2.52 2.73 0 1.92-1.03 2.87-3.07 2.87-1.91-.01-2.95-.83-2.97-2.45zm7.26-.34v-2.89c0-1.88 1.05-2.84 3.06-2.84 1.9 0 2.81.87 2.86 2.4h-1.72c-.05-.5-.4-.88-1.16-.88-.85 0-1.25.47-1.25 1.4v.81c.46-.46 1.03-.67 1.77-.67 1.56 0 2.42.93 2.42 2.65 0 1.84-.98 2.81-2.98 2.81-1.96-.01-3-.95-3-2.79zm4.19.02c0-.77-.35-1.19-1.08-1.19-.62 0-1.05.3-1.32.91v.18c0 .88.41 1.34 1.22 1.34.81.01 1.18-.44 1.18-1.24zm3.18.74h1.88v1.88h-1.88v-1.88zm3.17-.4c0-.98.42-1.66 1.26-2v-.02c-.7-.33-1.05-.92-1.05-1.77 0-1.49 1.05-2.31 2.95-2.31 1.89 0 2.94.82 2.94 2.3 0 .86-.35 1.45-1.07 1.78v.02c.83.34 1.26 1.02 1.26 2 0 1.57-1.08 2.42-3.15 2.42-2.06 0-3.14-.85-3.14-2.42zm4.51-.08c0-.73-.47-1.07-1.37-1.07-.88 0-1.36.34-1.36 1.07 0 .7.44 1.02 1.36 1.02s1.37-.32 1.37-1.02zm-.17-3.56c0-.65-.41-.97-1.19-.97s-1.19.31-1.19.97c0 .67.44 1 1.19 1s1.19-.34 1.19-1zm3.19-2.92h1.79v4.99l2.08-2.47h2.09l-2.21 2.58 2.25 3.74h-2.08l-1.44-2.44-.69.81v1.63h-1.79v-8.84zm8.74 5.81h-2.24v-1.43h2.24v-2.37h1.48v2.37h2.24v1.43h-2.24v2.37h-1.48v-2.37zm7.27-5.2h1.91l1.69 5.86 1.68-5.86h1.83l-2.61 8.23h-1.89l-2.61-8.23zm7.95-.51h1.89v1.52h-1.89v-1.52zm.05 2.42h1.79v6.32h-1.79v-6.32zm3.11 3.77v-1.23c0-1.75.97-2.69 2.81-2.69 1.85 0 2.82.96 2.82 2.71V187h-3.84v.12c0 .82.33 1.22 1.1 1.22.6 0 .96-.24.99-.68h1.71c-.07 1.37-1 2.08-2.71 2.08-1.91.01-2.88-.9-2.88-2.68zm3.93-1.32c0-.85-.32-1.2-1.07-1.2-.76 0-1.08.35-1.08 1.2h2.15zm2.26-2.45h1.88l.98 4.11 1.16-4.11h1.57l1.16 4.11.98-4.11h1.8l-1.8 6.31h-1.82l-1.12-3.94-1.13 3.94h-1.84l-1.82-6.31zm9.92 4.38h1.71c0 .54.29.79.98.79.59 0 .88-.18.88-.57 0-.45-.34-.64-1.28-.75-1.56-.18-2.18-.71-2.18-1.91 0-1.37.92-2.08 2.58-2.08 1.67 0 2.52.7 2.52 2.01h-1.71c0-.5-.24-.71-.82-.71-.53 0-.8.21-.8.57 0 .41.33.59 1.25.7 1.6.18 2.21.77 2.21 2 0 1.38-.87 2.04-2.66 2.04-1.84-.01-2.68-.69-2.68-2.09z" fill="#fff"/><path d="M347.81 151.87l8.02 16.03h-16.04z" fill="#f268cb"/></svg>
