<svg xmlns="http://www.w3.org/2000/svg" id="SvgjsSvg6616" width="4096" height="1357.8382742922563" version="1.1" xmlns:xlink="http://www.w3.org/1999/xlink" xmlns:svgjs="http://svgjs.com/svgjs"><defs id="SvgjsDefs6617"></defs><g id="SvgjsG6618" transform="translate(328, 328.00000000000006) scale(34.4)" opacity="1"><defs id="SvgjsDefs2455"></defs><g id="SvgjsG2456" transform="scale(0.21645021645021645)" opacity="1"><g id="SvgjsG2457" class="pMmKQuapH" transform="translate(-3.0133795530525336, -13.134718795845384) scale(1.2053518212210135)" light-content="false" non-strokable="false" fill="#2e80ec"><path d="M70.898 10.898h-57C7.601 10.898 2.5 16 2.5 22.3v32.898c0 6.3 5.102 11.398 11.398 11.398h28.199c5.5-5.2 15.898-13.199 28.301-13.199 4.2 0 8.3.898 11.898 2.398v-.601l.004-32.895c.098-6.301-5.102-11.402-11.402-11.402zM53.5 41.101L37.301 51.199c-1.8 1.102-4.2-.2-4.2-2.3V28.6c0-2.101 2.302-3.398 4.2-2.3L53.5 36.401c1.7 1.098 1.7 3.598 0 4.7z"></path><path d="M70.398 58c-11.301 0-21 7.8-25.699 12.398-1.8 1.7-1.8 4.602 0 6.3 4.7 4.602 14.5 12.399 25.699 12.399 11.301 0 21-7.801 25.699-12.398 1.8-1.7 1.8-4.602 0-6.301C91.397 65.8 81.699 58 70.398 58zm0 26.199c-5.898 0-10.602-4.8-10.602-10.602 0-5.898 4.8-10.602 10.602-10.602 5.898 0 10.602 4.8 10.602 10.602 0 5.8-4.7 10.602-10.602 10.602z"></path><path d="M70.398 67c-.7 0-1.3.102-1.898.3.398.5.699 1.102.699 1.802 0 1.8-1.399 3.199-3.2 3.199-.699 0-1.3-.301-1.8-.7a5.83 5.83 0 0 0-.301 1.899c0 3.602 2.898 6.602 6.602 6.602 3.601 0 6.601-2.899 6.601-6.602C77 69.898 74 67 70.398 67z"></path></g><g id="SvgjsG2458" class="text" transform="translate(300.118138606657, 63.43329744835485) scale(1)" light-content="false" fill="#ffffff"><path d="M-138.01 -27.18L-137.51 -23.78L-140.23 -16.31L-144.65 -41.94C-144.77 -42.07 -144.87 -42.2 -144.94 -42.36C-145.01 -42.51 -145.08 -42.62 -145.13 -42.67C-145.18 -42.72 -145.28 -42.75 -145.42 -42.75L-150.49 -42.75C-151.62 -42.75 -153.43 -42.72 -155.94 -42.68C-158.44 -42.64 -160.31 -42.62 -161.54 -42.62L-161.54 -42.5C-162.22 -42.35 -162.56 -42.05 -162.56 -41.57L-155.06 -16.06C-154.73 -14.72 -154.35 -13.16 -153.91 -11.38C-153.48 -9.6 -153.05 -7.81 -152.62 -6.02C-152.18 -4.23 -151.8 -2.68 -151.47 -1.36L-130.35 -1.36C-129.92 -1.36 -129.53 -1.65 -129.19 -2.24C-128.85 -2.83 -128.57 -3.55 -128.34 -4.42L-117.99 -41.63C-118.01 -41.7 -118.09 -41.78 -118.23 -41.88C-118.36 -41.98 -118.53 -42.11 -118.74 -42.25C-118.94 -42.39 -119.06 -42.48 -119.11 -42.5L-133.19 -42.5C-133.42 -42.5 -133.63 -42.48 -133.82 -42.44C-134.02 -42.4 -134.19 -42.32 -134.35 -42.22C-134.5 -42.12 -134.63 -42.03 -134.73 -41.96C-134.84 -41.89 -134.93 -41.76 -135.03 -41.57C-135.12 -41.39 -135.19 -41.25 -135.24 -41.17C-135.29 -41.09 -135.35 -40.92 -135.4 -40.66C-135.45 -40.4 -135.48 -40.24 -135.49 -40.18L-135.58 -39.63C-135.63 -39.32 -135.66 -39.14 -135.66 -39.1L-135.66 -36.94C-135.78 -35.64 -136.17 -33.89 -136.82 -31.67C-137.47 -29.46 -137.86 -27.96 -138.01 -27.18Z M-110.09 -1.17L-93.17 -1.17C-92.96 -1.17 -92.81 -1.25 -92.72 -1.41C-92.63 -1.56 -92.53 -1.85 -92.43 -2.29L-92.43 -42.5L-109.04 -42.5C-109.11 -42.44 -109.29 -42.34 -109.6 -42.2C-109.91 -42.07 -110.07 -41.92 -110.09 -41.76Z M-80.42 -39.9L-80.42 -2.29L-79.49 -1.48L-48.92 -1.48C-48.46 -1.5 -48.15 -1.63 -47.99 -1.85C-47.82 -2.08 -47.74 -2.41 -47.74 -2.84L-47.74 -12.72C-47.8 -12.85 -47.89 -12.97 -47.99 -13.1C-48.28 -13.34 -48.96 -13.47 -50.03 -13.47L-53.98 -13.47C-54.78 -13.47 -56.09 -13.44 -57.9 -13.37C-59.72 -13.31 -61.08 -13.28 -62.01 -13.28C-62.18 -13.28 -62.42 -13.29 -62.75 -13.31C-63.08 -13.33 -63.33 -13.34 -63.49 -13.34L-63.49 -17.3L-58.55 -17.3C-57.44 -17.3 -55.95 -17.35 -54.09 -17.45C-52.23 -17.55 -50.91 -17.6 -50.15 -17.6L-50.15 -17.54C-50.01 -17.54 -49.9 -17.58 -49.84 -17.67C-49.78 -17.75 -49.7 -17.91 -49.6 -18.16L-49.6 -18.96C-49.6 -19.29 -49.62 -19.68 -49.66 -20.14C-49.7 -20.59 -49.72 -21.04 -49.72 -21.5L-49.72 -22.36C-49.72 -22.55 -49.73 -22.77 -49.75 -23.02C-49.77 -23.28 -49.78 -23.45 -49.78 -23.53L-49.78 -24.71C-49.78 -24.81 -49.76 -24.99 -49.72 -25.23C-49.68 -25.48 -49.66 -25.66 -49.66 -25.76C-49.66 -26.17 -49.76 -26.49 -49.97 -26.72C-50.17 -26.94 -50.56 -27.06 -51.14 -27.06C-52.46 -27.06 -54.34 -27.01 -56.79 -26.93C-59.24 -26.85 -61.06 -26.81 -62.26 -26.81L-63.62 -26.81L-63.62 -30.64L-49.29 -30.64C-49.22 -30.7 -49.11 -30.79 -48.95 -30.9C-48.78 -31.01 -48.68 -31.09 -48.65 -31.12C-48.62 -31.15 -48.58 -31.21 -48.53 -31.3C-48.48 -31.39 -48.44 -31.5 -48.42 -31.63L-48.42 -41.94C-48.42 -42.42 -48.69 -42.68 -49.22 -42.75L-57.44 -42.75C-59.54 -42.75 -62.7 -42.69 -66.91 -42.59C-71.12 -42.49 -74.26 -42.44 -76.34 -42.44L-77.95 -42.44C-78.07 -42.48 -78.3 -42.5 -78.63 -42.5L-79.37 -42.5C-79.78 -42.5 -80.08 -42.35 -80.26 -42.07C-80.37 -41.86 -80.42 -41.14 -80.42 -39.9Z M-23.38 -21.77L-25.63 -41.39C-25.66 -41.98 -25.84 -42.38 -26.18 -42.58C-26.51 -42.77 -27.01 -42.87 -27.67 -42.87L-29.71 -42.87L-29.71 -42.99L-31.75 -42.99C-31.98 -42.99 -32.31 -42.98 -32.74 -42.96C-33.17 -42.94 -33.5 -42.93 -33.73 -42.93L-34.59 -42.93C-34.78 -42.93 -34.98 -42.92 -35.19 -42.9C-35.41 -42.88 -35.56 -42.87 -35.64 -42.87L-36.69 -42.87C-36.69 -42.79 -36.9 -42.75 -37.31 -42.75L-39.35 -42.75C-39.64 -42.75 -40.07 -42.79 -40.64 -42.87C-40.77 -42.83 -40.87 -42.78 -40.95 -42.71C-41.04 -42.65 -41.1 -42.6 -41.14 -42.56C-41.18 -42.52 -41.21 -42.45 -41.23 -42.36C-41.25 -42.27 -41.26 -42.2 -41.26 -42.17L-41.26 -41.94L-41.26 -41.7L-41.45 -39.5L-33.23 -1.11L-32.24 -1.11C-31.26 -1.11 -29.69 -1.14 -27.55 -1.2C-25.41 -1.27 -23.68 -1.3 -22.36 -1.3C-21.6 -1.3 -20.47 -1.27 -18.96 -1.2C-17.46 -1.14 -16.33 -1.11 -15.57 -1.11C-15.3 -1.11 -15.07 -1.18 -14.89 -1.33C-14.7 -1.47 -14.55 -1.72 -14.42 -2.07C-14.3 -2.42 -14.21 -2.7 -14.16 -2.9C-14.11 -3.11 -14.04 -3.49 -13.94 -4.05L-13.77 -5.07L-11.64 -21.43L-8.22 -1.61L9.85 -1.61L18.84 -41.02C18.8 -41.28 18.73 -41.51 18.64 -41.7C18.55 -41.88 18.44 -42.02 18.33 -42.13C18.22 -42.23 18.09 -42.32 17.94 -42.39C17.8 -42.46 17.66 -42.51 17.53 -42.53C17.39 -42.55 17.23 -42.56 17.05 -42.56C16.93 -42.56 16.73 -42.55 16.48 -42.53C16.22 -42.51 16.04 -42.5 15.94 -42.5C15.81 -42.62 15.36 -42.68 14.58 -42.68C14.37 -42.68 14.09 -42.67 13.74 -42.65C13.39 -42.63 13.18 -42.62 13.1 -42.62C12.44 -42.62 11.49 -42.64 10.25 -42.68C9.02 -42.72 8.07 -42.75 7.41 -42.75L6.7 -42.75L5.9 -42.75C5.71 -42.75 5.46 -42.74 5.14 -42.73C4.82 -42.72 4.57 -42.7 4.39 -42.67C4.2 -42.64 4 -42.6 3.8 -42.54C3.59 -42.49 3.43 -42.43 3.32 -42.34C3.21 -42.26 3.13 -42.16 3.09 -42.03L0.59 -20.79L-0.74 -29.53C-0.8 -30.02 -0.87 -30.55 -0.94 -31.1C-1.01 -31.66 -1.08 -32.19 -1.16 -32.71C-1.23 -33.22 -1.3 -33.77 -1.36 -34.34C-1.42 -34.92 -1.48 -35.47 -1.54 -36C-1.61 -36.52 -1.67 -37.07 -1.75 -37.65C-1.82 -38.23 -1.88 -38.77 -1.95 -39.29C-2.01 -39.8 -2.07 -40.34 -2.15 -40.91C-2.22 -41.47 -2.29 -42 -2.35 -42.5L-20.14 -42.5C-20.32 -41.24 -20.55 -39.54 -20.83 -37.39C-21.11 -35.23 -21.35 -33.42 -21.56 -31.94C-21.76 -30.45 -22.03 -28.76 -22.35 -26.87C-22.66 -24.98 -23.01 -23.28 -23.38 -21.77Z M59.79 -23.1C61.7 -24.26 63.12 -25.47 64.03 -26.75C64.95 -28.02 65.41 -29.71 65.41 -31.81C65.41 -33.46 65.1 -35.02 64.48 -36.51C63.86 -37.99 62.96 -39.12 61.76 -39.9C59.05 -41.88 55.36 -42.87 50.71 -42.87L27.23 -42.87L27.23 -1.36L56.39 -1.36L58.98 -2.9C61.23 -3.71 63.03 -5.04 64.37 -6.9C65.72 -8.77 66.44 -10.95 66.52 -13.47C66.52 -14.41 66.37 -15.43 66.07 -16.51C65.77 -17.59 65.36 -18.63 64.82 -19.63C64.29 -20.63 63.58 -21.45 62.69 -22.11C61.81 -22.77 60.84 -23.1 59.79 -23.1ZM43.79 -19.15L44.75 -19.15C44.97 -19.15 45.3 -19.13 45.72 -19.1C46.14 -19.07 46.48 -19.03 46.74 -18.98C47 -18.93 47.32 -18.86 47.71 -18.76C48.1 -18.67 48.42 -18.55 48.65 -18.41C48.89 -18.26 49.14 -18.08 49.41 -17.85C49.68 -17.63 49.89 -17.37 50.04 -17.08C50.2 -16.79 50.33 -16.45 50.43 -16.06C50.53 -15.67 50.58 -15.24 50.58 -14.76C50.58 -13.45 50.18 -12.5 49.36 -11.94C48.55 -11.37 47.47 -11.04 46.14 -10.93L43.73 -10.93C43.52 -10.97 43.27 -11.05 42.99 -11.17C42.7 -11.28 42.55 -11.38 42.55 -11.46ZM43.17 -32.74C43.17 -33.15 43.34 -33.42 43.67 -33.54L43.67 -33.48C44.04 -33.48 44.26 -33.5 44.35 -33.54C45.33 -33.54 46.22 -33.45 47 -33.28C47.78 -33.1 48.48 -32.73 49.1 -32.15C49.72 -31.57 50.03 -30.82 50.03 -29.9C50.03 -29.22 49.93 -28.62 49.73 -28.11C49.54 -27.59 49.25 -27.18 48.85 -26.89C48.46 -26.59 48.08 -26.35 47.71 -26.16C47.34 -25.97 46.86 -25.85 46.28 -25.79C45.69 -25.73 45.24 -25.69 44.93 -25.67C44.62 -25.65 44.2 -25.63 43.67 -25.63C43.5 -25.7 43.42 -25.84 43.42 -26.07L43.42 -27.06C43.42 -27.24 43.41 -27.47 43.39 -27.75C43.37 -28.03 43.36 -28.21 43.36 -28.29C43.36 -28.35 43.37 -28.46 43.39 -28.6C43.41 -28.74 43.42 -28.85 43.42 -28.91L43.42 -29.53C43.42 -30.74 43.34 -31.81 43.17 -32.74Z M74.95 -22.36L74.95 -20.51C75.11 -17.83 75.59 -15.39 76.38 -13.17C77.17 -10.96 78.21 -9.07 79.49 -7.51C80.76 -5.94 82.24 -4.62 83.92 -3.55C85.6 -2.48 87.4 -1.69 89.32 -1.19C91.25 -0.68 93.27 -0.43 95.39 -0.43C96.83 -0.43 98.28 -0.53 99.73 -0.71C101.18 -0.9 102.7 -1.21 104.29 -1.65C105.87 -2.1 107.37 -2.74 108.78 -3.58C110.19 -4.43 111.37 -5.44 112.32 -6.61L113.55 -8.15C116.27 -11.88 117.63 -16.7 117.63 -22.61C117.63 -27.86 115.94 -32.59 112.56 -36.82L112.56 -37.68C111.62 -38.89 110.43 -39.94 109 -40.81C107.57 -41.69 106.08 -42.33 104.53 -42.73C102.99 -43.13 101.58 -43.42 100.32 -43.59C99.05 -43.77 97.84 -43.86 96.69 -43.86C92.08 -43.14 88.76 -42.35 86.74 -41.51L85.57 -41.51C83.55 -40.69 82.05 -39.7 81.06 -38.54L80.32 -37.8C78.24 -35.72 76.8 -33.14 76 -30.05C75.65 -28.73 75.28 -26.4 74.88 -23.04ZM91.93 -22.11L91.93 -23.47C91.93 -29.57 93.48 -32.61 96.57 -32.61C97.45 -32.61 98.2 -32.31 98.82 -31.7C99.44 -31.1 99.9 -30.29 100.19 -29.29C100.49 -28.3 100.7 -27.3 100.83 -26.31C100.95 -25.33 101.01 -24.3 101.01 -23.23L101.01 -22.11C101.01 -21.13 101 -20.28 100.97 -19.58C100.94 -18.88 100.87 -18.07 100.78 -17.14C100.69 -16.21 100.53 -15.44 100.3 -14.82C100.08 -14.21 99.79 -13.6 99.44 -13C99.09 -12.41 98.63 -11.96 98.06 -11.67C97.5 -11.39 96.83 -11.24 96.07 -11.24C93.31 -11.24 91.93 -14.87 91.93 -22.11Z M125.19 -31.26C125.19 -30.91 125.4 -30.65 125.81 -30.5C126.22 -30.34 126.65 -30.27 127.11 -30.27L134.83 -30.27C134.83 -30.1 134.84 -29.74 134.86 -29.17C134.88 -28.6 134.89 -28.23 134.89 -28.04C134.89 -27.88 134.88 -27.62 134.86 -27.27C134.84 -26.92 134.83 -26.66 134.83 -26.5L134.83 -25.7C134.83 -23.43 134.75 -20.34 134.59 -16.43C134.44 -12.52 134.35 -9.97 134.33 -8.77L134.33 -2.1L135.57 -1.24L137.3 -1.24C137.79 -1.24 138.48 -1.25 139.35 -1.27C140.23 -1.29 140.9 -1.3 141.37 -1.3L143.84 -1.3C144.01 -1.3 144.26 -1.31 144.59 -1.33C144.92 -1.35 145.16 -1.36 145.33 -1.36C145.33 -1.19 146.65 -1.11 149.28 -1.11L151.26 -1.11C151.34 -1.13 151.42 -1.15 151.49 -1.16C151.56 -1.17 151.62 -1.18 151.67 -1.2C151.73 -1.23 151.78 -1.25 151.83 -1.28C151.88 -1.31 151.92 -1.33 151.95 -1.34C151.98 -1.35 152.01 -1.38 152.03 -1.44C152.05 -1.49 152.07 -1.52 152.09 -1.54C152.11 -1.56 152.13 -1.61 152.15 -1.67C152.17 -1.73 152.18 -1.77 152.18 -1.79C152.18 -1.81 152.19 -1.86 152.21 -1.95C152.24 -2.03 152.25 -2.08 152.25 -2.1L152.25 -30.51L161.02 -30.51C161.55 -30.51 161.84 -30.76 161.88 -31.26L161.88 -41.14C161.88 -41.51 161.84 -41.79 161.76 -41.99C161.68 -42.18 161.47 -42.31 161.14 -42.37L125.19 -42.37Z"></path></g></g></g></svg>